<?xml version="1.0" encoding="UTF-8" standalone="no"?>

<svg
   xmlns:dc="http://purl.org/dc/elements/1.1/"
   xmlns:cc="http://creativecommons.org/ns#"
   xmlns:rdf="http://www.w3.org/1999/02/22-rdf-syntax-ns#"
   xmlns:svg="http://www.w3.org/2000/svg"
   xmlns="http://www.w3.org/2000/svg"
   xmlns:sodipodi="http://sodipodi.sourceforge.net/DTD/sodipodi-0.dtd"
   xmlns:inkscape="http://www.inkscape.org/namespaces/inkscape"
   width="1600"
   height="960"
   viewBox="0 0 423.33334 254"
   version="1.1"
   id="svg8">
  <defs
     id="defs2" />
  <g
     id="layer1"
     transform="translate(-63.499999,62.833392)">
    <path
       style="opacity:1;fill:#cd2d0a;fill-opacity:1;stroke:none;stroke-width:42.33333206;stroke-linecap:butt;stroke-linejoin:round;stroke-miterlimit:2.25;stroke-dasharray:none;stroke-opacity:1;paint-order:normal"
       d="m 153.45833,-41.666725 c -27.77105,0 -51.59276,16.293909 -62.476804,39.8802534 L 178.10179,85.332757 h 105.90516 c 7.07173,-11.09391 19.48717,-18.519793 33.49305,-18.519801 21.76211,1e-5 39.6875,17.925401 39.6875,39.687504 0,21.76211 -17.92539,39.68749 -39.6875,39.68749 -14.00665,0 -26.42257,-7.4264 -33.49408,-18.52134 H 169.33385 A 21.168783,21.168783 0 0 1 154.36732,121.4675 L 84.666666,51.766848 v 49.441422 c 0,38.11058 30.681084,68.79167 68.791664,68.79167 H 396.875 c 27.7713,0 51.5934,-16.29409 62.47733,-39.88077 L 372.23258,43.000456 h -105.9057 c -7.07168,11.09391 -19.48717,18.519793 -33.49303,18.519801 -21.7621,0 -39.68749,-17.925401 -39.6875,-39.687499 10e-6,-21.76211125 17.9254,-39.687505 39.6875,-39.6875 14.00652,0 26.4225,7.426569 33.49409,18.52134947 H 381 A 21.168782,21.168782 0 0 1 395.96705,6.8657129 L 465.66666,76.565333 V 27.12494 c 0,-38.11058 -30.68108,-68.791665 -68.79166,-68.791665 z m 79.37552,50.2708324 c -7.46296,0 -13.2302,5.7656806 -13.2302,13.2286506 0,7.462959 5.76724,13.230209 13.2302,13.230198 7.46296,0 13.22865,-5.767239 13.22865,-13.230198 0,-7.462962 -5.76569,-13.2286506 -13.22865,-13.2286506 z M 317.5,93.270257 c -7.46297,0 -13.22864,5.767239 -13.22864,13.230203 0,7.46296 5.76567,13.22865 13.22864,13.22865 7.46297,0 13.22863,-5.76569 13.22863,-13.22865 0,-7.462964 -5.76566,-13.230203 -13.22863,-13.230203 z"
       id="rect1107" />
  </g>
</svg>
